# xmcd
#
# Track frame offsets:
#	150
#	11502
#	24500
#	41675
#	55264
#	66535
#	79876
#	94583
#	107288
#	121231
#	134884
#	148665
#
# Disc length: 2122 seconds
#
# Revision: 1
# Processed by: cddbd v1.5PL3 Copyright (c) Steve Scherf et al.
# Submitted via: audiograbber 1.83.01
#
DISCID=a508480c
DTITLE=Alexis Korner's Blues Incorporated - R and B from the Marquee
DYEAR=1962
DGENRE=Blues
TTITLE0=Gotta Move
TTITLE1=Rain is Such a Lonesome Sound
TTITLE2=I Got My Brand On You
TTITLE3=Spooky But Nice
TTITLE4=Keep Your Hands Off
TTITLE5=I Wanna Put a Tiger in Your Tank
TTITLE6=I Got My Mojo Working
TTITLE7=Finkle's Cafe
TTITLE8=Hoochie Coochie
TTITLE9=Down Town
TTITLE10=How Long, How Long, Blues
TTITLE11=I Thought I Heard That Train Whistle Blow
EXTD=Ace of Clubs/Decca
EXTT0=
EXTT1=
EXTT2=
EXTT3=
EXTT4=
EXTT5=
EXTT6=
EXTT7=
EXTT8=
EXTT9=
EXTT10=
EXTT11=
PLAYORDER=
